<svg xmlns="http://www.w3.org/2000/svg" viewBox="0 0 1200 320" width="100%">
  <rect width="1200" height="320" fill="#FAF9F6"/>

  <g fill="#DEDBD0">
    <circle cx="40" cy="20" r="1.2"/>
<circle cx="80" cy="20" r="1.2"/>
<circle cx="120" cy="20" r="1.2"/>
<circle cx="160" cy="20" r="1.2"/>
<circle cx="200" cy="20" r="1.2"/>
<circle cx="240" cy="20" r="1.2"/>
<circle cx="280" cy="20" r="1.2"/>
<circle cx="320" cy="20" r="1.2"/>
<circle cx="360" cy="20" r="1.2"/>
<circle cx="400" cy="20" r="1.2"/>
<circle cx="440" cy="20" r="1.2"/>
<circle cx="480" cy="20" r="1.2"/>
<circle cx="520" cy="20" r="1.2"/>
<circle cx="560" cy="20" r="1.2"/>
<circle cx="600" cy="20" r="1.2"/>
<circle cx="640" cy="20" r="1.2"/>
<circle cx="680" cy="20" r="1.2"/>
<circle cx="720" cy="20" r="1.2"/>
<circle cx="760" cy="20" r="1.2"/>
<circle cx="800" cy="20" r="1.2"/>
<circle cx="840" cy="20" r="1.2"/>
<circle cx="880" cy="20" r="1.2"/>
<circle cx="920" cy="20" r="1.2"/>
<circle cx="960" cy="20" r="1.2"/>
<circle cx="1000" cy="20" r="1.2"/>
<circle cx="1040" cy="20" r="1.2"/>
<circle cx="1080" cy="20" r="1.2"/>
<circle cx="1120" cy="20" r="1.2"/>
<circle cx="1160" cy="20" r="1.2"/>
<circle cx="1200" cy="20" r="1.2"/>
<circle cx="40" cy="70" r="1.2"/>
<circle cx="80" cy="70" r="1.2"/>
<circle cx="120" cy="70" r="1.2"/>
<circle cx="160" cy="70" r="1.2"/>
<circle cx="200" cy="70" r="1.2"/>
<circle cx="240" cy="70" r="1.2"/>
<circle cx="280" cy="70" r="1.2"/>
<circle cx="320" cy="70" r="1.2"/>
<circle cx="360" cy="70" r="1.2"/>
<circle cx="400" cy="70" r="1.2"/>
<circle cx="440" cy="70" r="1.2"/>
<circle cx="480" cy="70" r="1.2"/>
<circle cx="520" cy="70" r="1.2"/>
<circle cx="560" cy="70" r="1.2"/>
<circle cx="600" cy="70" r="1.2"/>
<circle cx="640" cy="70" r="1.2"/>
<circle cx="680" cy="70" r="1.2"/>
<circle cx="720" cy="70" r="1.2"/>
<circle cx="760" cy="70" r="1.2"/>
<circle cx="800" cy="70" r="1.2"/>
<circle cx="840" cy="70" r="1.2"/>
<circle cx="880" cy="70" r="1.2"/>
<circle cx="920" cy="70" r="1.2"/>
<circle cx="960" cy="70" r="1.2"/>
<circle cx="1000" cy="70" r="1.2"/>
<circle cx="1040" cy="70" r="1.2"/>
<circle cx="1080" cy="70" r="1.2"/>
<circle cx="1120" cy="70" r="1.2"/>
<circle cx="1160" cy="70" r="1.2"/>
<circle cx="1200" cy="70" r="1.2"/>
<circle cx="40" cy="120" r="1.2"/>
<circle cx="80" cy="120" r="1.2"/>
<circle cx="120" cy="120" r="1.2"/>
<circle cx="160" cy="120" r="1.2"/>
<circle cx="200" cy="120" r="1.2"/>
<circle cx="240" cy="120" r="1.2"/>
<circle cx="280" cy="120" r="1.2"/>
<circle cx="320" cy="120" r="1.2"/>
<circle cx="360" cy="120" r="1.2"/>
<circle cx="400" cy="120" r="1.2"/>
<circle cx="440" cy="120" r="1.2"/>
<circle cx="480" cy="120" r="1.2"/>
<circle cx="520" cy="120" r="1.2"/>
<circle cx="560" cy="120" r="1.2"/>
<circle cx="600" cy="120" r="1.2"/>
<circle cx="640" cy="120" r="1.2"/>
<circle cx="680" cy="120" r="1.2"/>
<circle cx="720" cy="120" r="1.2"/>
<circle cx="760" cy="120" r="1.2"/>
<circle cx="800" cy="120" r="1.2"/>
<circle cx="840" cy="120" r="1.2"/>
<circle cx="880" cy="120" r="1.2"/>
<circle cx="920" cy="120" r="1.2"/>
<circle cx="960" cy="120" r="1.2"/>
<circle cx="1000" cy="120" r="1.2"/>
<circle cx="1040" cy="120" r="1.2"/>
<circle cx="1080" cy="120" r="1.2"/>
<circle cx="1120" cy="120" r="1.2"/>
<circle cx="1160" cy="120" r="1.2"/>
<circle cx="1200" cy="120" r="1.2"/>
<circle cx="40" cy="170" r="1.2"/>
<circle cx="80" cy="170" r="1.2"/>
<circle cx="120" cy="170" r="1.2"/>
<circle cx="160" cy="170" r="1.2"/>
<circle cx="200" cy="170" r="1.2"/>
<circle cx="240" cy="170" r="1.2"/>
<circle cx="280" cy="170" r="1.2"/>
<circle cx="320" cy="170" r="1.2"/>
<circle cx="360" cy="170" r="1.2"/>
<circle cx="400" cy="170" r="1.2"/>
<circle cx="440" cy="170" r="1.2"/>
<circle cx="480" cy="170" r="1.2"/>
<circle cx="520" cy="170" r="1.2"/>
<circle cx="560" cy="170" r="1.2"/>
<circle cx="600" cy="170" r="1.2"/>
<circle cx="640" cy="170" r="1.2"/>
<circle cx="680" cy="170" r="1.2"/>
<circle cx="720" cy="170" r="1.2"/>
<circle cx="760" cy="170" r="1.2"/>
<circle cx="800" cy="170" r="1.2"/>
<circle cx="840" cy="170" r="1.2"/>
<circle cx="880" cy="170" r="1.2"/>
<circle cx="920" cy="170" r="1.2"/>
<circle cx="960" cy="170" r="1.2"/>
<circle cx="1000" cy="170" r="1.2"/>
<circle cx="1040" cy="170" r="1.2"/>
<circle cx="1080" cy="170" r="1.2"/>
<circle cx="1120" cy="170" r="1.2"/>
<circle cx="1160" cy="170" r="1.2"/>
<circle cx="1200" cy="170" r="1.2"/>
<circle cx="40" cy="220" r="1.2"/>
<circle cx="80" cy="220" r="1.2"/>
<circle cx="120" cy="220" r="1.2"/>
<circle cx="160" cy="220" r="1.2"/>
<circle cx="200" cy="220" r="1.2"/>
<circle cx="240" cy="220" r="1.2"/>
<circle cx="280" cy="220" r="1.2"/>
<circle cx="320" cy="220" r="1.2"/>
<circle cx="360" cy="220" r="1.2"/>
<circle cx="400" cy="220" r="1.2"/>
<circle cx="440" cy="220" r="1.2"/>
<circle cx="480" cy="220" r="1.2"/>
<circle cx="520" cy="220" r="1.2"/>
<circle cx="560" cy="220" r="1.2"/>
<circle cx="600" cy="220" r="1.2"/>
<circle cx="640" cy="220" r="1.2"/>
<circle cx="680" cy="220" r="1.2"/>
<circle cx="720" cy="220" r="1.2"/>
<circle cx="760" cy="220" r="1.2"/>
<circle cx="800" cy="220" r="1.2"/>
<circle cx="840" cy="220" r="1.2"/>
<circle cx="880" cy="220" r="1.2"/>
<circle cx="920" cy="220" r="1.2"/>
<circle cx="960" cy="220" r="1.2"/>
<circle cx="1000" cy="220" r="1.2"/>
<circle cx="1040" cy="220" r="1.2"/>
<circle cx="1080" cy="220" r="1.2"/>
<circle cx="1120" cy="220" r="1.2"/>
<circle cx="1160" cy="220" r="1.2"/>
<circle cx="1200" cy="220" r="1.2"/>
<circle cx="40" cy="270" r="1.2"/>
<circle cx="80" cy="270" r="1.2"/>
<circle cx="120" cy="270" r="1.2"/>
<circle cx="160" cy="270" r="1.2"/>
<circle cx="200" cy="270" r="1.2"/>
<circle cx="240" cy="270" r="1.2"/>
<circle cx="280" cy="270" r="1.2"/>
<circle cx="320" cy="270" r="1.2"/>
<circle cx="360" cy="270" r="1.2"/>
<circle cx="400" cy="270" r="1.2"/>
<circle cx="440" cy="270" r="1.2"/>
<circle cx="480" cy="270" r="1.2"/>
<circle cx="520" cy="270" r="1.2"/>
<circle cx="560" cy="270" r="1.2"/>
<circle cx="600" cy="270" r="1.2"/>
<circle cx="640" cy="270" r="1.2"/>
<circle cx="680" cy="270" r="1.2"/>
<circle cx="720" cy="270" r="1.2"/>
<circle cx="760" cy="270" r="1.2"/>
<circle cx="800" cy="270" r="1.2"/>
<circle cx="840" cy="270" r="1.2"/>
<circle cx="880" cy="270" r="1.2"/>
<circle cx="920" cy="270" r="1.2"/>
<circle cx="960" cy="270" r="1.2"/>
<circle cx="1000" cy="270" r="1.2"/>
<circle cx="1040" cy="270" r="1.2"/>
<circle cx="1080" cy="270" r="1.2"/>
<circle cx="1120" cy="270" r="1.2"/>
<circle cx="1160" cy="270" r="1.2"/>
<circle cx="1200" cy="270" r="1.2"/>

  </g>

  <!-- twinkling sparkles -->
  <g fill="#B5502F">
    <circle cx="920" cy="40" r="2.5"><animate attributeName="opacity" values="0;1;0" dur="2.4s" begin="0s" repeatCount="indefinite"/></circle>
    <circle cx="980" cy="90" r="2"><animate attributeName="opacity" values="0;1;0" dur="2.1s" begin="0.6s" repeatCount="indefinite"/></circle>
    <circle cx="1120" cy="55" r="2.5"><animate attributeName="opacity" values="0;1;0" dur="2.6s" begin="1.1s" repeatCount="indefinite"/></circle>
    <circle cx="1050" cy="150" r="2"><animate attributeName="opacity" values="0;1;0" dur="2.2s" begin="0.3s" repeatCount="indefinite"/></circle>
    <circle cx="1150" cy="200" r="2.5"><animate attributeName="opacity" values="0;1;0" dur="2.5s" begin="1.5s" repeatCount="indefinite"/></circle>
  </g>

  <rect x="0" y="316" width="1200" height="2" fill="#DEDBD0"/>

  <text x="80" y="150" font-family="Georgia, 'Times New Roman', serif" font-size="72" font-weight="600" fill="#1B1A17">Kelvin Bidi</text>

  <!-- typewriter reveal of the tagline -->
  <clipPath id="typeClip">
    <rect x="80" y="176" width="0" height="24">
      <animate attributeName="width" values="0;520;520;0;0" keyTimes="0;0.35;0.85;0.95;1" dur="6s" repeatCount="indefinite"/>
    </rect>
  </clipPath>
  <g clip-path="url(#typeClip)">
    <text x="80" y="192" font-family="'Courier New', monospace" font-size="17" letter-spacing="2.5" fill="#B5502F">FULL STACK DEVELOPER &#183; KADUNA, NIGERIA</text>
  </g>
  <rect x="82" y="176" width="2.5" height="20" fill="#B5502F">
    <animate attributeName="opacity" values="1;1;0;0" keyTimes="0;0.5;0.51;1" dur="0.9s" repeatCount="indefinite"/>
    <animate attributeName="x" values="82;602;602;82;82" keyTimes="0;0.35;0.85;0.95;1" dur="6s" repeatCount="indefinite"/>
  </rect>

  <line x1="80" y1="212" x2="240" y2="212" stroke="#B5502F" stroke-width="2" stroke-dasharray="160">
    <animate attributeName="stroke-dashoffset" values="160;0;0;160;160" keyTimes="0;0.35;0.85;0.95;1" dur="6s" repeatCount="indefinite"/>
  </line>

  <text x="80" y="250" font-family="'Courier New', monospace" font-size="13" letter-spacing="1" fill="#6E6C64">Node.js &#183; Express &#183; MongoDB &#183; Next.js</text>

  <g transform="translate(1040, 65)">
    <rect width="90" height="90" rx="14" fill="#F1F0EA" stroke="#DEDBD0" stroke-width="1.5"/>
    <text x="45" y="64" font-family="Georgia, 'Times New Roman', serif" font-size="48" font-weight="600" text-anchor="middle" fill="#B5502F">K</text>
  </g>
</svg>
